<mxfile host="app.diagrams.net" modified="2023-06-20T03:14:44.781Z" agent="Mozilla/5.0 (X11; Linux x86_64) AppleWebKit/537.36 (KHTML, like Gecko) Chrome/113.0.0.0 Safari/537.36 OPR/99.0.0.0" version="21.3.8" etag="KdNrYUVdliH15oey4huP" type="github">
  <diagram name="Page-1" id="fPdRo3x8JSGfEpWSReo4">
    <mxGraphModel>
      <root>
        <mxCell id="0" />
        <mxCell id="1" parent="0" />
      </root>
    </mxGraphModel>
  </diagram>
</mxfile>
